<?xml version="1.0" encoding="UTF-8" standalone="no"?>
<svg xmlns:dc="http://purl.org/dc/elements/1.1/" xmlns:cc="http://creativecommons.org/ns#" xmlns:rdf="http://www.w3.org/1999/02/22-rdf-syntax-ns#" xmlns:svg="http://www.w3.org/2000/svg" xmlns="http://www.w3.org/2000/svg" xmlns:sodipodi="http://sodipodi.sourceforge.net/DTD/sodipodi-0.dtd" xmlns:inkscape="http://www.inkscape.org/namespaces/inkscape" width="230.40234pt" height="57.597656pt" viewBox="0 0 230.40234 57.597655" version="1.1" id="svg2" inkscape:version="0.91 r13725" sodipodi:docname="abbott.svg" inkscape:export-filename="C:\Users\USER\Downloads\TCT2018\abbott@3x.png" inkscape:export-xdpi="233.75951" inkscape:export-ydpi="233.75951">
  <metadata id="metadata13">
    <rdf:RDF>
      <cc:Work rdf:about="">
        <dc:format>image/svg+xml</dc:format>
        <dc:type rdf:resource="http://purl.org/dc/dcmitype/StillImage"/>
        <dc:title/>
      </cc:Work>
    </rdf:RDF>
  </metadata>
  <defs id="defs11"/>
  <sodipodi:namedview pagecolor="#ffffff" bordercolor="#666666" borderopacity="1" objecttolerance="10" gridtolerance="10" guidetolerance="10" inkscape:pageopacity="0" inkscape:pageshadow="2" inkscape:window-width="1301" inkscape:window-height="745" id="namedview9" showgrid="false" inkscape:zoom="0.87962961" inkscape:cx="-265.26024" inkscape:cy="35.999019" inkscape:window-x="57" inkscape:window-y="-8" inkscape:window-maximized="1" inkscape:current-layer="svg2" fit-margin-top="0" fit-margin-left="0" fit-margin-right="0" fit-margin-bottom="0"/>
  <g id="surface150" transform="translate(-57.597656,-57.601563)">
    <path style="fill:#2e99dc;fill-opacity:1;fill-rule:nonzero;stroke:none" d="m 67.164063,76.800781 c -5.28125,0 -9.566407,4.28125 -9.566407,9.5625 l 0,19.269529 c 0,5.28516 4.285157,9.56641 9.566407,9.56641 l 52.871097,0 c 5.28125,0 9.5664,-4.28125 9.5664,-9.56641 l 0,-38.472654 c 0,-5.277343 -4.28515,-9.558593 -9.5664,-9.558593 l -62.437504,0 0,9.597656 59.300784,0 c 1.71484,0 3.10156,1.386719 3.10156,3.101562 L 120,102.5 c 0,1.71094 -1.38672,3.10156 -3.10156,3.10156 l -46.597659,0 c -1.710937,0 -3.101562,-1.39062 -3.101562,-3.10156 l 0,-13 c 0,-1.710937 1.386719,-3.101562 3.101562,-3.101562 l 40.097659,0 0,-9.597657 -43.234377,0" id="path5" inkscape:connector-curvature="0"/>
    <path style="fill:#211e1e;fill-opacity:1;fill-rule:nonzero;stroke:none" d="m 219.33594,90.394531 c 0,4.574219 -1.01953,7.300782 -3.53907,7.300782 -2.5039,0 -3.53125,-2.726563 -3.53125,-7.300782 0,-4.558593 1.02735,-7.289062 3.53125,-7.289062 2.51954,0 3.53907,2.730469 3.53907,7.289062 z m 65.07812,0.363282 0,3.492187 c 0,2.054688 -0.44531,3.273438 -2.14453,3.273438 -1.02734,0 -1.51562,-0.765625 -1.51562,-1.710938 l 0,-12.304687 5.49218,0 0,-3.582032 -5.49218,0 0,-8.316406 -4.44141,0 c -0.36328,3.710938 -1.52344,8.316406 -5.99609,8.316406 l -6.98047,0 0,-8.316406 -4.42969,0 c -0.35938,3.710938 -1.52734,8.316406 -5.99609,8.316406 l 0,3.582032 2.99609,0 0,11.230468 c 0,4.566407 2.55078,6.800779 7.15234,6.800779 5.38282,0 7.51953,-2.410154 7.51953,-6.800779 l 0,-3.980468 -3.5664,0 0,3.492187 c 0,2.054688 -0.45313,3.273438 -2.14844,3.273438 -1.03906,0 -1.52734,-0.765625 -1.52734,-1.710938 l 0,-12.304687 9.99218,0 0,11.230468 c 0,4.566407 2.53907,6.800779 7.15235,6.800779 5.36719,0 7.51953,-2.410154 7.51953,-6.800779 l 0,-3.980468 z m -43.46094,-7.921875 c -2.68359,0 -3.625,2.28125 -3.625,7.5625 0,5.277343 0.94141,7.5625 3.625,7.5625 2.6836,0 3.6211,-2.285157 3.6211,-7.5625 0,-5.28125 -0.9375,-7.5625 -3.6211,-7.5625 z m -46.73046,7.558593 c 0,4.574219 -1.01954,7.300782 -3.53907,7.300782 -2.5039,0 -3.53125,-2.726563 -3.53125,-7.300782 0,-4.558593 1.02735,-7.289062 3.53125,-7.289062 2.51953,0 3.53907,2.730469 3.53907,7.289062 z m -38.13282,-19.191406 -7.47656,22.371094 c -0.91016,2.730469 -1.52344,3.363281 -3.08984,3.363281 l -1.52735,0 0,3.94141 13.16016,0 0,-3.94141 -1.28516,0 c -1.21875,0 -2.79297,-0.136719 -2.79297,-0.859375 0,-0.628906 0.1836,-1.292969 0.67188,-2.851562 l 0.54687,-1.792969 9.12891,0 0.9375,3.214844 c 0.17578,0.671875 0.22266,1.164062 0.22266,1.625 0,0.484375 -1.11719,0.664062 -2.46094,0.664062 l -1.33984,0 0,3.94141 16.33593,0 0,-3.94141 -1.52343,0 c -1.5586,0 -2.1875,-0.632812 -3.07422,-3.363281 l -7.48047,-22.371094 z m 2.6836,6.65625 0.0898,0 3.21484,9.640625 -6.49218,0 z m 20.9414,23.019535 5.02344,0 1.29297,-2.78516 c 1.55859,2.46094 4.07031,3.44531 6.88672,3.44531 6.71875,0 9.21875,-5.234372 9.21875,-11.144529 0,-5.894531 -2.5,-11.140625 -9.21875,-11.140625 -2.00391,0 -4.10938,1.207032 -5.76563,3.085938 l 0,-11.136719 -11.10156,0 0,3.578125 2.05469,0 c 1.29687,0 1.60937,0.664063 1.60937,1.929688 z m 25.11328,0 5.02344,0 1.29297,-2.78516 c 1.55859,2.46094 4.07031,3.44531 6.88672,3.44531 6.71484,0 9.21875,-5.234372 9.21875,-11.144529 0,-5.894531 -2.50391,-11.140625 -9.21875,-11.140625 -2.00391,0 -4.10938,1.207032 -5.76563,3.085938 l 0,-11.136719 -11.10156,0 0,3.578125 2.0586,0 c 1.29687,0 1.60546,0.664063 1.60546,1.929688 z m 47.67579,-10.480472 c 0,7.164062 -4.88282,11.140622 -11.55079,11.140622 -6.67578,0 -11.54687,-3.97656 -11.54687,-11.140622 0,-7.164063 4.87109,-11.144532 11.54687,-11.144532 6.66797,0 11.55079,3.980469 11.55079,11.144532" id="path7" inkscape:connector-curvature="0"/>
  </g>
</svg>