<?xml version="1.0" encoding="UTF-8" standalone="no"?>
<!-- Generator: Adobe Illustrator 21.0.0, SVG Export Plug-In . SVG Version: 6.00 Build 0)  -->
<svg xmlns:dc="http://purl.org/dc/elements/1.1/" xmlns:cc="http://creativecommons.org/ns#" xmlns:rdf="http://www.w3.org/1999/02/22-rdf-syntax-ns#" xmlns:svg="http://www.w3.org/2000/svg" xmlns="http://www.w3.org/2000/svg" xmlns:sodipodi="http://sodipodi.sourceforge.net/DTD/sodipodi-0.dtd" xmlns:inkscape="http://www.inkscape.org/namespaces/inkscape" version="1.1" id="Layer_1" x="0px" y="0px" viewBox="0 0 546.59999 56.699999" xml:space="preserve" inkscape:version="0.91 r13725" sodipodi:docname="Cardiomedics.svg" width="546.59998" height="56.700001"><metadata id="metadata11"><rdf:RDF><cc:Work rdf:about=""><dc:format>image/svg+xml</dc:format><dc:type rdf:resource="http://purl.org/dc/dcmitype/StillImage"/><dc:title/></cc:Work></rdf:RDF></metadata><defs id="defs9"/><sodipodi:namedview pagecolor="#ffffff" bordercolor="#666666" borderopacity="1" objecttolerance="10" gridtolerance="10" guidetolerance="10" inkscape:pageopacity="0" inkscape:pageshadow="2" inkscape:window-width="1301" inkscape:window-height="745" id="namedview7" showgrid="false" fit-margin-top="0" fit-margin-left="0" fit-margin-right="0" fit-margin-bottom="0" inkscape:zoom="0.28031832" inkscape:cx="262.84999" inkscape:cy="-188.25001" inkscape:window-x="57" inkscape:window-y="-8" inkscape:window-maximized="1" inkscape:current-layer="Layer_1"/><style type="text/css" id="style3">
	.st0{fill:#4960A2;}
</style><path class="st0" d="m 55.1,18.8 -15.6,1.8 0,-0.3 c 0,-2.7 -0.8,-4.7 -2.4,-5.9 -1.6,-1.3 -3.4,-2 -5.3,-2 -2.5,0 -4.9,0.9 -7.3,2.8 -2.4,1.8 -4.3,4.6 -5.7,8.4 -1.4,3.8 -2.1,7.4 -2.1,11 0,2.7 0.7,5 2.2,6.8 1.5,1.8 3.6,2.8 6.4,2.8 2.6,0 4.8,-0.8 6.6,-2.5 1.8,-1.6 3.3,-4.2 4.7,-7.6 l 15.9,2.5 C 50.9,42.3 47.7,47 42.9,50.9 38.2,54.8 32,56.7 24.4,56.7 16.5,56.7 10.5,54.6 6.3,50.4 2.1,46.2 0,40.6 0,33.6 0,28.2 1.2,22.9 3.7,17.4 6.2,12 9.8,7.7 14.6,4.6 19.4,1.5 25.1,0 31.7,0 c 6.9,0 12.4,1.7 16.4,5.2 4,3.4 6.3,7.9 7,13.6 l 0,0 z m 3.6,8.1 c 0.9,-3.8 3,-6.7 6.3,-8.7 3.3,-2.1 8.4,-3.1 15.2,-3.1 7.8,0 13.1,1 15.8,2.9 2.7,2 4.1,4.8 4.1,8.6 0,2.5 -0.7,6.6 -2.1,12.3 -1.3,5.4 -1.9,9.2 -1.9,11.3 0,1.8 0.3,3.6 1,5.5 l -14.8,0 c -0.3,-1.6 -0.5,-3.1 -0.5,-4.5 -4,3.7 -8.4,5.5 -13.4,5.5 -5,0 -8.6,-1.2 -10.8,-3.5 -2.2,-2.3 -3.3,-5.1 -3.3,-8.2 0,-3.5 1,-6.2 2.9,-8 2,-1.8 4.4,-3.1 7.2,-3.8 2.9,-0.7 6.8,-1.2 11.7,-1.7 4.4,-0.5 7.4,-0.9 8.8,-1.4 0.3,-1.2 0.4,-2.1 0.4,-2.7 0,-1 -0.5,-1.8 -1.5,-2.4 -1,-0.6 -2.4,-0.9 -4,-0.9 -1.7,0 -3.2,0.3 -4.3,0.8 -1.1,0.6 -2,1.7 -2.9,3.5 l -13.9,-1.5 0,0 z m 24.7,11 c -7,1.2 -11.1,2.2 -12.3,3.1 -1.2,0.9 -1.8,2 -1.8,3.2 0,1.3 0.4,2.3 1.3,3 0.9,0.7 2,1.1 3.4,1.1 1.9,0 3.8,-0.8 5.7,-2.3 1.8,-1.6 3,-4.3 3.7,-8.1 l 0,0 z M 141.6,16.3 136,28 c -1.2,-0.3 -2.2,-0.4 -3.1,-0.4 -2.9,0 -5.3,1 -7.1,3.1 -1.8,2.1 -3.2,5.5 -4.2,10.1 l -3.1,14.8 -15.3,0 8.5,-39.7 14.2,0 -1.8,7.8 0.2,0.2 c 2.4,-3.5 4.5,-5.9 6.2,-7.1 1.8,-1.2 3.8,-1.8 5.9,-1.8 1.6,0.1 3.3,0.5 5.2,1.3 l 0,0 z M 188.8,0.8 177,55.6 l -14.1,0 0.7,-4 -0.1,-0.2 c -2.1,2 -4.1,3.3 -5.8,4 -1.7,0.7 -3.8,1 -6.2,1 -4.5,0 -7.9,-1.5 -10.3,-4.5 -2.4,-3 -3.6,-7 -3.6,-12 0,-6.7 1.8,-12.6 5.4,-17.6 3.6,-5 8.1,-7.5 13.6,-7.5 5.6,0 9.8,2.1 12.6,6.3 l 4.3,-20.4 15.3,0 0,0.1 z m -31.1,45.8 c 2.8,0 5,-1.6 6.5,-4.7 1.5,-3.2 2.3,-6.4 2.3,-9.7 0,-2.3 -0.6,-4.1 -1.8,-5.2 -1.2,-1.1 -2.5,-1.7 -4.1,-1.7 -2.2,0 -4.1,1.4 -5.7,4.3 -1.6,2.8 -2.4,6.2 -2.4,10.2 0,2.2 0.5,4 1.4,5.1 1,1.1 2.3,1.7 3.8,1.7 l 0,0 z m 56.1,-45.8 -2.2,10.5 -15.2,0 2.1,-10.5 15.3,0 0,0 z m -3.1,15.2 -8.5,39.7 -15.3,0 8.5,-39.7 15.3,0 0,0 z m 24.7,-0.9 c 7.1,0 12.3,1.8 15.5,5.4 3.3,3.6 4.9,7.8 4.9,12.6 0,3.7 -0.9,7.4 -2.8,11.2 -1.9,3.8 -4.7,6.8 -8.4,9 -3.8,2.2 -8.4,3.3 -13.9,3.3 -7,0 -12.1,-1.7 -15.4,-5.1 -3.3,-3.4 -5,-7.7 -5,-12.8 0,-4 1,-7.9 3,-11.6 2,-3.7 4.9,-6.7 8.6,-8.8 3.8,-2.2 8.3,-3.2 13.5,-3.2 l 0,0 z m -3.7,31.2 c 2.8,0 5.1,-1.5 6.8,-4.4 1.7,-2.9 2.5,-6.1 2.5,-9.7 0,-2.6 -0.6,-4.4 -1.9,-5.4 -1.3,-1 -2.7,-1.6 -4.2,-1.6 -3.2,0 -5.6,1.5 -7.2,4.4 -1.6,2.9 -2.4,5.9 -2.4,8.9 0,2.2 0.6,4 1.9,5.5 1.2,1.6 2.7,2.3 4.5,2.3 l 0,0 z m 71.4,-24.5 c 2.9,-2.6 5.5,-4.4 7.9,-5.3 2.4,-1 4.9,-1.4 7.5,-1.4 3.6,0 6.3,1 8.1,2.9 1.8,1.9 2.7,4.2 2.7,6.9 0,1.6 -0.2,3.2 -0.5,4.7 l -5.6,26.1 -15.3,0 3.7,-16.9 c 0.9,-4.3 1.4,-6.9 1.5,-7.7 0.1,-0.8 0.1,-1.4 0.1,-1.7 0,-2.1 -1,-3.1 -2.9,-3.1 -2.3,0 -4.1,1 -5.6,2.8 -1.5,1.9 -2.7,4.9 -3.5,9 l -3.8,17.7 -15.3,0 3.6,-16.6 c 0.9,-4.5 1.5,-7.1 1.6,-7.9 0.1,-0.8 0.2,-1.4 0.2,-1.9 0,-2 -1,-3 -3.1,-3 -1.5,0 -3.2,0.8 -4.9,2.4 -1.7,1.6 -3,4.3 -3.8,8.1 l -4.1,19 -15.4,0 8.5,-39.7 14.2,0 -1.2,5.7 0.2,0.2 c 4.4,-4.5 9.3,-6.7 14.7,-6.7 2.5,0 4.7,0.6 6.6,1.8 1.9,0.8 3.2,2.5 3.9,4.6 l 0,0 z m 73.5,23.7 c -2.2,3.9 -5.1,6.8 -8.7,8.5 -3.6,1.7 -8.1,2.6 -13.4,2.6 -7.8,0 -13.4,-1.8 -16.7,-5.3 -3.3,-3.5 -5,-7.9 -5,-13 0,-3.5 0.8,-6.9 2.3,-10 1.5,-3.1 3.6,-5.8 6.3,-7.9 2.6,-2.1 5.2,-3.5 7.8,-4.3 2.6,-0.7 5.6,-1.1 9,-1.1 7.4,0 12.7,1.6 15.9,4.8 3.2,3.2 4.8,7.2 4.8,11.9 0,1.5 -0.3,4.2 -1,8 l -30.3,0 c 0.4,5.3 2.8,8 7.1,8 2.9,0 5.3,-1.2 7,-3.6 l 14.9,1.4 0,0 z M 363.8,32.4 c 0.2,-0.5 0.3,-1.3 0.3,-2.3 0,-2 -0.6,-3.5 -1.8,-4.6 -1.2,-1 -2.7,-1.5 -4.5,-1.5 -1.9,0 -3.6,0.7 -5.2,2.1 -1.6,1.4 -2.8,3.5 -3.6,6.3 l 14.8,0 0,0 z m 69.7,-31.6 -11.8,54.8 -14.1,0 0.7,-4 -0.1,-0.2 c -2.1,2 -4.1,3.3 -5.8,4 -1.7,0.7 -3.8,1 -6.2,1 -4.5,0 -7.9,-1.5 -10.3,-4.5 -2.4,-3 -3.6,-7 -3.6,-12 0,-6.7 1.8,-12.6 5.4,-17.6 3.6,-5 8.1,-7.5 13.6,-7.5 5.6,0 9.8,2.1 12.6,6.3 l 4.3,-20.4 15.3,0 0,0.1 z m -31.1,45.8 c 2.8,0 5,-1.6 6.5,-4.7 1.5,-3.2 2.3,-6.4 2.3,-9.7 0,-2.3 -0.6,-4.1 -1.8,-5.2 -1.2,-1.1 -2.5,-1.7 -4.1,-1.7 -2.2,0 -4.1,1.4 -5.7,4.3 -1.6,2.8 -2.4,6.2 -2.4,10.2 0,2.2 0.5,4 1.4,5.1 1,1.1 2.2,1.7 3.8,1.7 l 0,0 z m 56.1,-45.8 -2.2,10.5 -15.2,0 2.1,-10.5 15.3,0 0,0 z m -3.2,15.2 -8.5,39.7 -15.3,0 8.5,-39.7 15.3,0 0,0 z m 47.8,13.8 -13.8,0.7 c -0.6,-3.5 -3,-5.2 -7,-5.2 -3.7,0 -6.6,1.5 -8.6,4.5 -2,3 -3,6.3 -3,9.8 0,2.1 0.7,3.8 2.1,4.9 1.4,1.1 3,1.7 4.6,1.7 4.1,0 7.1,-2.2 9.1,-6.7 l 14.2,1.5 c -3.5,10.3 -11.5,15.5 -23.9,15.5 -14,0 -21,-5.7 -21,-17.2 0,-6.7 2.3,-12.4 6.9,-17.2 4.6,-4.8 11.1,-7.2 19.5,-7.2 6,0 10.8,1.2 14.4,3.7 3.7,2.6 5.8,6.3 6.5,11.2 l 0,0 z m 43.5,-4.3 -14.2,1.5 c -0.4,-2.4 -2.2,-3.6 -5.3,-3.6 -1.8,0 -3.2,0.3 -4.2,1 -0.9,0.7 -1.4,1.5 -1.4,2.3 0,0.9 0.4,1.7 1.3,2.3 0.8,0.6 3.1,1.2 6.7,1.7 5.9,0.9 9.8,2.2 11.7,3.9 1.9,1.8 2.9,4.1 2.9,7 0,4.1 -1.9,7.6 -5.7,10.5 -3.8,2.9 -9.6,4.3 -17.3,4.3 -6.3,0 -11,-0.9 -13.9,-2.8 -2.9,-1.8 -4.7,-4.9 -5.2,-9.1 l 15,-1.3 c 0.7,3.2 2.8,4.8 6.4,4.8 1.7,0 3.2,-0.4 4.4,-1.1 1.3,-0.7 1.9,-1.8 1.9,-3.1 0,-1.2 -0.5,-2 -1.4,-2.5 -0.9,-0.4 -2.7,-0.8 -5.2,-1.2 -5.9,-0.9 -9.9,-2.3 -12,-4.2 C 509,34 508,31.7 508,28.8 c 0,-2.3 0.8,-4.6 2.4,-6.8 1.6,-2.2 3.9,-4 7.1,-5.3 3.2,-1.3 7.1,-1.9 11.7,-1.9 5.3,0 9.4,0.8 12.2,2.3 2.7,1.9 4.5,4.6 5.2,8.4 l 0,0 z" id="path5" inkscape:connector-curvature="0" style="fill:#4960a2"/></svg>